<mxfile host="drawio-plugin" modified="2023-06-01T19:51:21.280Z" agent="5.0 (Windows NT 6.2; Win64; x64) AppleWebKit/537.36 (KHTML, like Gecko) Chrome/89.0.4389.114 Safari/537.36" version="20.5.3" etag="SXKOUH2qHdWkvNUmsXNP" type="embed"><diagram id="R85fna5lQE_qu5zsvTrN" name="Page-1"><mxGraphModel dx="1485" dy="676" grid="1" gridSize="10" guides="1" tooltips="1" connect="1" arrows="1" fold="1" page="1" pageScale="1" pageWidth="850" pageHeight="1100" math="0" shadow="0"><root><mxCell id="0"/><mxCell id="1" parent="0"/><mxCell id="2" value="" style="shape=image;verticalLabelPosition=bottom;labelBackgroundColor=default;verticalAlign=top;aspect=fixed;imageAspect=0;image=https://upload-markdown-images.oss-cn-beijing.aliyuncs.com/react16_1626532331619.jpg;" vertex="1" parent="1"><mxGeometry x="80" y="70" width="652.33" height="350" as="geometry"/></mxCell></root></mxGraphModel></diagram></mxfile>